<svg xmlns="http://www.w3.org/2000/svg" width="800" height="400" viewBox="0 0 800 400">
  <rect width="800" height="400" fill="#1a1b26" rx="10" ry="10"/>
  <g transform="translate(400, 200)">
    <!-- Browser Window Shape -->
    <rect x="-180" y="-120" width="360" height="240" rx="10" ry="10" stroke="#4b31dd" stroke-width="5" fill="#2a2c3d"/>
    
    <!-- Lock Icon -->
    <g transform="translate(-20, -20)">
      <rect x="-40" y="-20" width="80" height="60" rx="10" ry="10" fill="#4b31dd"/>
      <circle cx="0" cy="-10" r="20" fill="#1a1b26"/>
      <rect x="-15" y="-12" width="30" height="40" rx="5" ry="5" fill="#1a1b26"/>
      <circle cx="0" cy="5" r="5" fill="#4b31dd"/>
      <rect x="-2" y="5" width="4" height="15" fill="#4b31dd"/>
    </g>
    
    <!-- Incognito Hat and Glasses -->
    <g transform="translate(120, -50) scale(0.8)">
      <path d="M-50,0 L50,0 L70,20 L-70,20 Z" fill="#8673f4"/>
      <ellipse cx="-25" cy="30" rx="15" ry="10" fill="#8673f4"/>
      <ellipse cx="25" cy="30" rx="15" ry="10" fill="#8673f4"/>
      <rect x="-40" y="30" width="80" height="2" fill="#8673f4"/>
    </g>
    
    <!-- Browser UI Elements -->
    <rect x="-160" y="-100" width="320" height="20" fill="#141521"/>
    <circle cx="-145" cy="-90" r="5" fill="#ff5f56"/>
    <circle cx="-130" cy="-90" r="5" fill="#ffbd2e"/>
    <circle cx="-115" cy="-90" r="5" fill="#27c93f"/>
    <rect x="-80" y="-95" width="200" height="10" rx="5" ry="5" fill="#2c2f45"/>
    
    <!-- No Tracking Icons -->
    <g transform="translate(-100, 60)">
      <circle cx="0" cy="0" r="30" fill="#2c2f45"/>
      <line x1="-20" y1="-20" x2="20" y2="20" stroke="#ff5f56" stroke-width="5"/>
      <line x1="20" y1="-20" x2="-20" y2="20" stroke="#ff5f56" stroke-width="5"/>
      <text x="0" y="50" text-anchor="middle" fill="#f8f8f2" font-family="Arial" font-size="14">No Tracking</text>
    </g>
    
    <!-- No History Icons -->
    <g transform="translate(100, 60)">
      <circle cx="0" cy="0" r="30" fill="#2c2f45"/>
      <path d="M-15,-5 L0,-15 L15,-5 L15,15 L-15,15 Z" fill="none" stroke="#f8f8f2" stroke-width="3"/>
      <line x1="-20" y1="-20" x2="20" y2="20" stroke="#ff5f56" stroke-width="5"/>
      <text x="0" y="50" text-anchor="middle" fill="#f8f8f2" font-family="Arial" font-size="14">No History</text>
    </g>
    
    <!-- Title -->
    <text x="0" y="-150" text-anchor="middle" fill="#f8f8f2" font-family="Arial" font-weight="bold" font-size="24">Private Browsing</text>
    <text x="0" y="130" text-anchor="middle" fill="#8673f4" font-family="Arial" font-size="18">Enhanced Privacy Protection</text>
  </g>
</svg> 